<svg width="18" height="15" viewBox="0 0 18 15" fill="none" xmlns="http://www.w3.org/2000/svg">
<path d="M17.0288 6.20944C16.1189 5.28477 15.0796 4.47744 13.9382 3.80944L16.8132 1.1461C17.0986 0.890104 17.1065 0.468104 16.8312 0.203437C16.5552 -0.0612295 16.1002 -0.0685628 15.8149 0.186771C15.8091 0.192104 15.8027 0.197437 15.7969 0.203437L15.784 0.215437C15.7595 0.288104 15.7164 0.354771 15.6596 0.409437L1.644 13.4094C1.63825 13.4141 1.63106 13.4154 1.62531 13.4208C1.47438 13.7614 1.65047 14.1508 2.01703 14.2908C2.28441 14.3928 2.59203 14.3354 2.7976 14.1461L5.77753 11.3821C6.75575 11.7781 7.808 11.9908 8.87535 12.0081H9.09097C12.15 12.0081 15.1924 10.0188 17.0339 8.14144C17.5636 7.59077 17.5614 6.7581 17.0288 6.20944ZM12.0788 8.02344C11.7618 8.9841 10.9554 9.73944 9.92256 10.0421C9.18872 10.2588 8.3945 10.2134 7.69444 9.91544C7.60388 9.87477 7.5665 9.7741 7.61034 9.6901C7.61897 9.67277 7.63119 9.65744 7.64556 9.6441L11.6418 5.9381C11.7115 5.8721 11.8265 5.87077 11.8977 5.93544C11.9128 5.94877 11.925 5.96477 11.9343 5.98277C12.2513 6.62344 12.3031 7.3501 12.0788 8.02344ZM5.82713 8.1101C5.87169 8.0681 5.88894 8.00677 5.87097 7.9501C5.79119 7.69877 5.74878 7.43877 5.74447 7.17677C5.74447 5.5201 7.19275 4.17677 8.97885 4.17677C9.26131 4.17944 9.54163 4.2181 9.8126 4.2921C9.87369 4.30877 9.93981 4.29277 9.9851 4.25077L11.3802 2.9561C11.4513 2.8901 11.4513 2.78277 11.3802 2.71677C11.3601 2.6981 11.3356 2.6841 11.3083 2.67544C10.5558 2.45144 9.76947 2.33944 8.97885 2.34344C5.88822 2.30477 2.7976 4.3101 0.938189 6.20944C0.397689 6.75544 0.395533 7.5941 0.933158 8.14277C1.67563 8.89677 2.50435 9.5741 3.40422 10.1628C3.47681 10.2094 3.576 10.2014 3.63853 10.1434L5.82713 8.1101Z" fill="#878787"/>
</svg>
